<?xml version="1.0" encoding="UTF-8"?>
<svg id="Layer_1" data-name="Layer 1" xmlns="http://www.w3.org/2000/svg" viewBox="0 0 985 880">
  <defs>
    <style>
      .cls-1 {
        fill: #fff;
        font-family: MonotypeCorsiva, 'Monotype Corsiva';
        font-size: 135px;
      }

      .cls-2 {
        fill: #6ec389;
      }
    </style>
  </defs>
  <path class="cls-2" d="M109.44,137.78C49.08,137.78,0,186.86,0,247.22v136.81c45.32,0,82.08,36.77,82.08,82.08S45.32,548.19,0,548.19v136.81c0,60.37,49.08,109.44,109.44,109.44H875.56c60.37,0,109.44-49.08,109.44-109.44v-136.81c-45.32,0-82.08-36.77-82.08-82.08s36.77-82.08,82.08-82.08V247.22c0-60.37-49.08-109.44-109.44-109.44H109.44Zm109.44,164.17v328.33H766.11V301.94H218.89Zm-54.72,0c0-30.27,24.45-54.72,54.72-54.72H766.11c30.27,0,54.72,24.45,54.72,54.72v328.33c0,30.27-24.45,54.72-54.72,54.72H218.89c-30.27,0-54.72-24.45-54.72-54.72V301.94Z"/>
  <text id="RI_ML" data-name="RI ML" class="cls-1" transform="translate(315.22 413.94)"><tspan x="0" y="0">Rachel</tspan><tspan x="53.99" y="145">Izac</tspan></text>
</svg>